HIERARCHY
ROOT Hip
{
	OFFSET -0.248980 0.196823 0.122301
	CHANNELS 6 Xposition Yposition Zposition Xrotation Yrotation Zrotation
	JOINT LowerSpine
	{
		OFFSET 0.000000 0.154442 0.259456
		CHANNELS 6 Xposition Yposition Zposition Xrotation Yrotation Zrotation
		JOINT MiddleSpine
		{
			OFFSET 0.000000 -0.011133 0.236774
			CHANNELS 3 Xrotation Yrotation Zrotation
			JOINT Chest
			{
				OFFSET 0.000000 0.058693 0.292978
				CHANNELS 3 Xrotation Yrotation Zrotation
				JOINT Neck
				{
					OFFSET -0.000000 0.012356 0.660221
					CHANNELS 6 Xposition Yposition Zposition Xrotation Yrotation Zrotation
					JOINT Head
					{
						OFFSET -0.000003 -0.101410 0.372834
						CHANNELS 3 Xrotation Yrotation Zrotation
						End Site
						{
							OFFSET 0.000000 -0.001598 0.053543
						}
					}
				}
				JOINT LClavicle
				{
					OFFSET 0.059990 -0.196462 0.637146
					CHANNELS 6 Xposition Yposition Zposition Xrotation Yrotation Zrotation
					JOINT LShoulder
					{
						OFFSET 0.350465 0.147876 0.091389
						CHANNELS 3 Xrotation Yrotation Zrotation
						JOINT LForearm
						{
							OFFSET 0.827173 0.007168 -0.002931
							CHANNELS 3 Xrotation Yrotation Zrotation
							JOINT LHand
							{
								OFFSET 0.690037 0.004133 0.002002
								CHANNELS 3 Xrotation Yrotation Zrotation
								JOINT LFinger1
								{
									OFFSET 0.267439 -0.074281 0.023388
									CHANNELS 6 Xposition Yposition Zposition Xrotation Yrotation Zrotation
									JOINT LFinger11
									{
										OFFSET 0.100036 -0.017626 -0.024394
										CHANNELS 3 Xrotation Yrotation Zrotation
										JOINT LFinger12
										{
											OFFSET 0.068292 -0.012037 -0.016657
											CHANNELS 3 Xrotation Yrotation Zrotation
											End Site
											{
												OFFSET 0.050720 -0.008226 -0.015141
											}
										}
									}
								}
								JOINT LFinger2
								{
									OFFSET 0.271429 -0.006468 0.027009
									CHANNELS 6 Xposition Yposition Zposition Xrotation Yrotation Zrotation
									JOINT LFinger21
									{
										OFFSET 0.123687 0.000731 0.000344
										CHANNELS 3 Xrotation Yrotation Zrotation
										JOINT LFinger22
										{
											OFFSET 0.068561 0.000417 0.000210
											CHANNELS 3 Xrotation Yrotation Zrotation
											End Site
											{
												OFFSET 0.053434 -0.000070 -0.003773
											}
										}
									}
								}
								JOINT LFinger3
								{
									OFFSET 0.257236 0.060858 0.018026
									CHANNELS 6 Xposition Yposition Zposition Xrotation Yrotation Zrotation
									JOINT LFinger31
									{
										OFFSET 0.112235 0.007028 -0.005681
										CHANNELS 3 Xrotation Yrotation Zrotation
										JOINT LFinger32
										{
											OFFSET 0.063958 0.004018 -0.003217
											CHANNELS 3 Xrotation Yrotation Zrotation
											End Site
											{
												OFFSET 0.053108 0.002511 -0.006529
											}
										}
									}
								}
								JOINT LFinger4
								{
									OFFSET 0.238706 0.105101 -0.018139
									CHANNELS 6 Xposition Yposition Zposition Xrotation Yrotation Zrotation
									JOINT LFinger41
									{
										OFFSET 0.069034 0.019057 -0.014398
										CHANNELS 3 Xrotation Yrotation Zrotation
										JOINT LFinger42
										{
											OFFSET 0.050624 0.013983 -0.010542
											CHANNELS 3 Xrotation Yrotation Zrotation
											End Site
											{
												OFFSET 0.050433 0.011572 -0.013857
											}
										}
									}
								}
								JOINT LFinger0
								{
									OFFSET 0.055325 -0.041941 -0.041874
									CHANNELS 6 Xposition Yposition Zposition Xrotation Yrotation Zrotation
									JOINT LFinger01
									{
										OFFSET 0.103004 -0.077658 -0.033827
										CHANNELS 3 Xrotation Yrotation Zrotation
										JOINT LFinger02
										{
											OFFSET 0.067827 -0.048866 -0.024270
											CHANNELS 3 Xrotation Yrotation Zrotation
											End Site
											{
												OFFSET 0.042516 -0.029114 -0.014636
											}
										}
									}
								}
							}
						}
					}
				}
				JOINT RClavicle
				{
					OFFSET -0.059990 -0.196459 0.637146
					CHANNELS 6 Xposition Yposition Zposition Xrotation Yrotation Zrotation
					JOINT RShoulder
					{
						OFFSET -0.350526 0.147902 0.091406
						CHANNELS 3 Xrotation Yrotation Zrotation
						JOINT RForearm
						{
							OFFSET -0.827173 0.007168 -0.002931
							CHANNELS 3 Xrotation Yrotation Zrotation
							JOINT RHand
							{
								OFFSET -0.690037 0.004133 0.002002
								CHANNELS 3 Xrotation Yrotation Zrotation
								JOINT RFinger1
								{
									OFFSET -0.267439 -0.074281 0.023391
									CHANNELS 6 Xposition Yposition Zposition Xrotation Yrotation Zrotation
									JOINT RFinger11
									{
										OFFSET -0.100036 -0.017626 -0.024394
										CHANNELS 3 Xrotation Yrotation Zrotation
										JOINT RFinger12
										{
											OFFSET -0.068292 -0.012037 -0.016660
											CHANNELS 3 Xrotation Yrotation Zrotation
											End Site
											{
												OFFSET -0.050720 -0.008226 -0.015141
											}
										}
									}
								}
								JOINT RFinger2
								{
									OFFSET -0.271429 -0.006468 0.027011
									CHANNELS 6 Xposition Yposition Zposition Xrotation Yrotation Zrotation
									JOINT RFinger21
									{
										OFFSET -0.123690 0.000731 0.000344
										CHANNELS 3 Xrotation Yrotation Zrotation
										JOINT RFinger22
										{
											OFFSET -0.068561 0.000420 0.000210
											CHANNELS 3 Xrotation Yrotation Zrotation
											End Site
											{
												OFFSET -0.053434 -0.000070 -0.003773
											}
										}
									}
								}
								JOINT RFinger3
								{
									OFFSET -0.257236 0.060858 0.018026
									CHANNELS 6 Xposition Yposition Zposition Xrotation Yrotation Zrotation
									JOINT RFinger31
									{
										OFFSET -0.112235 0.007028 -0.005681
										CHANNELS 3 Xrotation Yrotation Zrotation
										JOINT RFinger32
										{
											OFFSET -0.063957 0.004018 -0.003217
											CHANNELS 3 Xrotation Yrotation Zrotation
											End Site
											{
												OFFSET -0.053108 0.002511 -0.006529
											}
										}
									}
								}
								JOINT RFinger4
								{
									OFFSET -0.238705 0.105101 -0.018139
									CHANNELS 6 Xposition Yposition Zposition Xrotation Yrotation Zrotation
									JOINT RFinger41
									{
										OFFSET -0.069034 0.019057 -0.014395
										CHANNELS 3 Xrotation Yrotation Zrotation
										JOINT RFinger42
										{
											OFFSET -0.050624 0.013983 -0.010539
											CHANNELS 3 Xrotation Yrotation Zrotation
											End Site
											{
												OFFSET -0.050433 0.011572 -0.013857
											}
										}
									}
								}
								JOINT RFinger0
								{
									OFFSET -0.055325 -0.041938 -0.041872
									CHANNELS 6 Xposition Yposition Zposition Xrotation Yrotation Zrotation
									JOINT RFinger01
									{
										OFFSET -0.103004 -0.077661 -0.033832
										CHANNELS 3 Xrotation Yrotation Zrotation
										JOINT RFinger02
										{
											OFFSET -0.067824 -0.048865 -0.024268
											CHANNELS 3 Xrotation Yrotation Zrotation
											End Site
											{
												OFFSET -0.042516 -0.029114 -0.014636
											}
										}
									}
								}
							}
						}
					}
				}
			}
		}
	}
	JOINT RThigh
	{
		OFFSET -0.306771 0.025164 0.117281
		CHANNELS 6 Xposition Yposition Zposition Xrotation Yrotation Zrotation
		JOINT RShin
		{
			OFFSET -0.022210 0.000000 -1.207231
			CHANNELS 3 Xrotation Yrotation Zrotation
			JOINT RFoot
			{
				OFFSET 0.000000 -0.000000 -1.185430
				CHANNELS 3 Xrotation Yrotation Zrotation
				JOINT RToe
				{
					OFFSET 0.000000 -0.272451 -0.130290
					CHANNELS 3 Xrotation Yrotation Zrotation
					End Site
					{
						OFFSET 0.000000 -0.053567 0.000000
					}
				}
			}
		}
	}
	JOINT LThigh
	{
		OFFSET 0.306765 0.025166 0.117289
		CHANNELS 6 Xposition Yposition Zposition Xrotation Yrotation Zrotation
		JOINT LShin
		{
			OFFSET 0.022212 -0.000000 -1.207240
			CHANNELS 3 Xrotation Yrotation Zrotation
			JOINT LFoot
			{
				OFFSET -0.000000 -0.000000 -1.185430
				CHANNELS 3 Xrotation Yrotation Zrotation
				JOINT LToe
				{
					OFFSET -0.000000 -0.272454 -0.130289
					CHANNELS 3 Xrotation Yrotation Zrotation
					End Site
					{
						OFFSET 0.000000 -0.053567 0.000000
					}
				}
			}
		}
	}
}
MOTION
Frames: 4
Frame Time: 0.041667
2.096222 -2.099697 2.511255 -18.335844 1.560784 172.014462 -0.000000 0.154443 0.259457 -0.000009 0.000000 -0.000003 -0.642217 0.036133 1.477498 -1.839126 0.835196 2.752585 -0.000000 0.012356 0.660221 -9.204103 -1.959076 -0.775153 -2.083687 0.777547 0.017328 0.059990 -0.196462 0.637146 -4.491214 14.821943 0.005677 62.036942 35.053286 -44.365033 0.044017 0.019696 -26.063227 -0.000012 -0.000004 0.000001 0.267439 -0.074282 0.023389 0.000009 -0.000011 0.000001 -0.000008 0.000004 0.000000 0.000011 0.000008 -0.000006 0.271428 -0.006468 0.027009 -0.000007 -0.000003 -0.000001 0.000000 0.000003 0.000003 0.000001 -0.000001 0.000002 0.257236 0.060857 0.018027 -0.000007 -0.000007 -0.000000 0.000011 -0.000001 0.000004 0.000015 0.000001 0.000000 0.238705 0.105100 -0.018139 0.000001 -0.000004 0.000002 -0.000000 0.000000 -0.000003 -0.000002 0.000009 0.000009 0.055325 -0.041942 -0.041874 -0.000006 -0.000001 0.000006 -0.000004 0.000005 0.000004 0.000010 -0.000006 -0.000008 -0.059990 -0.196459 0.637146 6.313298 8.581083 17.960223 -32.336100 -9.056643 20.041395 0.215034 0.062484 59.583381 -0.000003 -0.000002 -0.000002 -0.267439 -0.074280 0.023391 -0.000011 -0.000006 -0.000003 0.000004 -0.000002 0.000005 0.000006 0.000001 0.000005 -0.271429 -0.006467 0.027012 0.000001 -0.000004 0.000000 0.000003 0.000003 0.000001 0.000001 0.000005 0.000003 -0.257237 0.060858 0.018026 0.000001 0.000001 -0.000000 0.000002 -0.000005 -0.000001 0.000001 0.000003 0.000003 -0.238705 0.105101 -0.018139 0.000001 -0.000003 -0.000006 -0.000001 -0.000005 0.000010 -0.000010 -0.000003 0.000006 -0.055325 -0.041938 -0.041872 0.000009 -0.000006 0.000012 0.000003 -0.000018 0.000014 0.000007 -0.000001 -0.000002 -0.277779 0.101270 0.013959 -18.337844 -1.656781 4.657891 9.189862 0.051466 -0.004464 1.022047 -0.140594 0.301627 -2.452233 -0.000002 -0.000001 0.299034 -0.026876 0.016332 -35.669529 7.959418 -37.324884 40.224070 0.000008 0.000018 11.547352 3.022749 -8.347571 -22.295165 -0.000099 0.000025 
2.113959 -2.097236 2.512355 -18.492044 1.153964 173.368356 0.000000 0.154442 0.259457 -0.000008 0.000000 -0.000002 -0.636937 0.069003 1.499604 -1.881165 0.842249 3.622820 0.000000 0.012357 0.660220 -9.448916 -1.748207 -0.693522 -2.275464 0.747402 0.017404 0.059990 -0.196462 0.637146 -4.596062 15.066253 0.005134 63.097267 36.657154 -43.223524 0.044046 0.015335 -27.285096 0.000005 -0.000004 0.000001 0.267440 -0.074281 0.023388 -0.000001 -0.000013 0.000002 -0.000003 0.000007 0.000004 0.000011 0.000007 -0.000005 0.271429 -0.006468 0.027009 -0.000004 -0.000003 -0.000000 -0.000009 0.000003 0.000003 0.000002 -0.000000 0.000003 0.257237 0.060858 0.018026 -0.000002 -0.000004 -0.000001 0.000001 -0.000001 0.000003 0.000006 0.000000 -0.000001 0.238705 0.105100 -0.018139 0.000002 -0.000004 -0.000000 0.000007 -0.000006 -0.000005 0.000001 0.000010 0.000007 0.055326 -0.041941 -0.041874 -0.000010 0.000001 0.000005 0.000006 -0.000002 0.000001 0.000002 0.000001 -0.000007 -0.059990 -0.196459 0.637146 6.436671 8.779209 18.390112 -28.397613 -7.679061 23.708068 0.217956 0.066821 62.723936 -0.000004 -0.000000 -0.000002 -0.267439 -0.074281 0.023391 -0.000005 -0.000008 -0.000005 -0.000000 -0.000006 0.000000 0.000002 0.000009 -0.000000 -0.271429 -0.006468 0.027011 -0.000001 -0.000005 0.000002 0.000001 0.000003 -0.000005 0.000003 0.000008 -0.000001 -0.257237 0.060858 0.018026 0.000002 0.000000 0.000001 0.000002 -0.000005 -0.000003 0.000000 0.000001 0.000003 -0.238705 0.105100 -0.018139 -0.000000 -0.000006 -0.000004 -0.000000 -0.000007 0.000007 -0.000002 -0.000003 0.000001 -0.055324 -0.041939 -0.041872 0.000008 0.000003 0.000017 -0.000002 -0.000018 -0.000001 -0.000000 -0.000009 -0.000002 -0.277958 0.102153 0.015300 -18.028300 -2.208526 4.593188 8.753919 0.052009 -0.004113 1.022042 -0.140594 0.301626 -2.023124 -0.000004 -0.000001 0.299411 -0.027872 0.010891 -35.868373 6.186372 -33.642582 38.636167 0.000014 0.000021 10.638908 3.793656 -10.225154 -20.342928 -0.000104 0.000029 
2.136499 -2.097661 2.511324 -18.825130 0.290653 176.223798 0.000001 0.154442 0.259456 -0.000009 0.000000 -0.000002 -0.696703 0.100150 1.521819 -1.922647 0.885133 4.360744 0.000000 0.012356 0.660221 -9.777521 -1.513503 -0.601307 -2.474538 0.717260 0.017371 0.059990 -0.196462 0.637147 -4.713678 15.372497 -0.016183 63.853922 37.462437 -42.738157 0.044070 0.015770 -27.786466 0.000005 -0.000004 0.000001 0.267439 -0.074281 0.023388 0.000008 -0.000009 0.000001 -0.000007 0.000004 0.000002 0.000010 0.000003 -0.000001 0.271428 -0.006468 0.027008 -0.000003 -0.000003 -0.000000 0.000005 0.000003 0.000003 -0.000003 0.000001 0.000002 0.257235 0.060858 0.018026 0.000005 -0.000004 -0.000001 0.000008 -0.000001 0.000003 -0.000002 -0.000002 -0.000000 0.238704 0.105101 -0.018139 0.000007 -0.000004 -0.000001 -0.000007 -0.000002 -0.000003 -0.000002 0.000010 0.000000 0.055325 -0.041941 -0.041874 -0.000001 0.000000 0.000020 0.000004 0.000003 0.000001 0.000009 -0.000007 -0.000002 -0.059989 -0.196459 0.637147 6.401387 8.741678 18.273239 -27.102223 -6.695628 22.771308 0.207791 0.084441 68.647759 -0.000001 -0.000001 -0.000008 -0.267439 -0.074281 0.023390 -0.000006 -0.000004 -0.000002 -0.000001 -0.000003 0.000012 0.000001 0.000008 -0.000008 -0.271429 -0.006468 0.027011 -0.000000 -0.000005 -0.000001 0.000001 0.000002 0.000003 0.000005 0.000007 0.000002 -0.257237 0.060858 0.018026 0.000003 0.000000 -0.000003 0.000002 -0.000005 -0.000007 -0.000003 0.000001 -0.000002 -0.238705 0.105100 -0.018139 0.000004 -0.000001 -0.000007 -0.000003 -0.000003 0.000018 -0.000004 -0.000004 0.000001 -0.055325 -0.041939 -0.041872 0.000004 0.000001 0.000005 0.000006 -0.000007 0.000001 -0.000002 -0.000003 -0.000006 -0.278135 0.103033 0.016657 -17.771128 -2.951143 4.473342 8.250701 0.052552 -0.003692 1.022048 -0.140594 0.301626 -1.686511 -0.000005 -0.000001 0.299748 -0.028203 0.007350 -36.886221 4.305113 -28.760021 37.324723 0.000014 0.000020 11.173465 4.834492 -13.230291 -19.253222 -0.000098 0.000024 
2.171199 -2.103219 2.506981 -19.419544 -1.172909 180.837632 0.000000 0.154442 0.259457 -0.000010 0.000000 -0.000003 -0.756457 0.131251 1.544100 -1.968122 0.952932 4.774151 -0.000000 0.012356 0.660220 -10.067041 -1.295858 -0.512902 -2.678315 0.687130 0.017181 0.059990 -0.196463 0.637146 -4.868260 15.766696 0.000990 64.282892 37.158148 -43.638932 0.044278 0.023670 -27.164347 0.000002 -0.000004 -0.000000 0.267440 -0.074282 0.023388 0.000009 -0.000010 0.000004 -0.000006 0.000004 0.000003 0.000008 0.000006 -0.000004 0.271428 -0.006468 0.027008 0.000005 -0.000002 0.000000 0.000007 0.000003 0.000003 -0.000003 -0.000000 0.000002 0.257236 0.060858 0.018026 0.000003 -0.000005 -0.000001 -0.000001 -0.000001 0.000003 0.000010 0.000000 0.000001 0.238705 0.105101 -0.018139 -0.000001 -0.000006 0.000001 0.000005 -0.000001 -0.000001 -0.000005 0.000008 0.000000 0.055326 -0.041941 -0.041874 0.000002 0.000002 0.000009 0.000004 -0.000003 0.000010 0.000005 -0.000002 -0.000008 -0.059990 -0.196460 0.637145 6.316723 8.631356 17.987134 -26.771714 -5.522252 18.505137 0.188154 0.104933 75.859721 -0.000002 -0.000001 0.000001 -0.267439 -0.074281 0.023391 -0.000006 -0.000010 -0.000002 0.000007 -0.000008 -0.000000 0.000002 0.000007 -0.000012 -0.271429 -0.006468 0.027012 -0.000002 -0.000005 -0.000002 0.000001 0.000003 -0.000002 0.000001 0.000006 0.000002 -0.257236 0.060858 0.018026 0.000002 0.000000 -0.000003 0.000000 -0.000006 -0.000007 0.000001 -0.000000 0.000001 -0.238705 0.105101 -0.018139 -0.000000 -0.000008 -0.000008 0.000000 -0.000001 0.000006 -0.000009 -0.000004 0.000003 -0.055325 -0.041938 -0.041871 0.000003 0.000001 -0.000003 -0.000001 -0.000016 -0.000002 0.000005 -0.000016 -0.000012 -0.278312 0.103908 0.018026 -17.779140 -4.060154 4.237297 7.623417 0.053101 -0.003146 1.022042 -0.140597 0.301625 -0.887373 -0.000004 -0.000001 0.300072 -0.028198 0.004799 -38.979592 2.273234 -22.730383 36.568638 0.000015 0.000026 13.511497 5.756971 -16.857139 -19.411119 -0.000098 0.000021 
